<svg width="133" height="113" viewBox="0 0 133 113" fill="none" xmlns="http://www.w3.org/2000/svg">
<g clip-path="url(#clip0_2_17)">
<path d="M21 77H57V104H48C33.0883 104 21 91.9117 21 77V77Z" fill="#FF52BA"/>
<path d="M74 77H110V77C110 91.9117 97.9117 104 83 104H74V77Z" fill="#FF52BA"/>
<rect x="48" y="42" width="36" height="28" fill="#FF52BA"/>
<rect x="89" y="42" width="36" height="28" fill="#FF52BA"/>
<rect x="89" y="42" width="36" height="28" fill="#FF52BA"/>
<rect x="7" y="42" width="36" height="28" fill="#FF52BA"/>
<rect x="48" y="7" width="36" height="28" fill="#FF52BA"/>
<rect x="-7" y="53" width="140" height="6" fill="white"/>
<rect x="63.2258" y="123.009" width="140" height="6" transform="rotate(-90.0924 63.2258 123.009)" fill="white"/>
</g>
<defs>
<clipPath id="clip0_2_17">
<rect width="141" height="127" fill="white" transform="translate(-8)"/>
</clipPath>
</defs>
</svg>
